<svg xmlns="http://www.w3.org/2000/svg" xml:space="preserve" viewBox="0 0 1280 1280"><path d="M640.3 250.1 212 574.1l152.9 115.6c-20.2 43.1-32 91.8-32 143.4 0 178.6 137.9 323.9 307.3 323.9v-129.5l428.2-323.9-151.9-115.1c19.8-42.7 31-90.8 31-141.8 0-178.6-137.9-323.9-307.3-323.9zm-184.5 583c0-23.3 3.8-45.7 11.3-66.5l173.1 131v129.5c-101.7 0-184.5-87.3-184.5-194.4zm440.9-129.5L725.5 833.1l-342.6-259 171.3-129.5zm-72.4-257c0 22.8-3.8 44.1-10.4 64.5L640.3 379.7V252.1c101.7 0 184.5 87.3 184.5 194.4z"/>
    <style>
        path { fill: #6008e4; }
        @media (prefers-color-scheme: dark) {
            path { fill: #ff652c; }
        }
    </style>
</svg>